<?xml version="1.0" encoding="UTF-8"?>
<svg id="Layer_1" xmlns="http://www.w3.org/2000/svg" version="1.1" viewBox="0 0 32 32">
  <!-- Generator: Adobe Illustrator 29.1.0, SVG Export Plug-In . SVG Version: 2.1.0 Build 142)  -->
  <defs>
    <style>
      .st0 {
        fill: none;
      }
    </style>
  </defs>
  <path class="st0" d="M24,0H8C3.6,0,0,3.6,0,8v11.2c0,4.4,3.6,8,8,8h2.4c.4,0,1,.3,1.3.6l2.4,3.2c1.1,1.4,2.8,1.4,3.8,0l2.4-3.2c.3-.4.8-.6,1.3-.6h2.4c4.4,0,8-3.6,8-8V8c0-4.4-3.6-8-8-8ZM9.6,16c-.9,0-1.6-.7-1.6-1.6s.7-1.6,1.6-1.6,1.6.7,1.6,1.6-.7,1.6-1.6,1.6ZM16,16c-.9,0-1.6-.7-1.6-1.6s.7-1.6,1.6-1.6,1.6.7,1.6,1.6-.7,1.6-1.6,1.6ZM22.4,16c-.9,0-1.6-.7-1.6-1.6s.7-1.6,1.6-1.6,1.6.7,1.6,1.6-.7,1.6-1.6,1.6Z"/>
</svg>