<?xml version="1.0" encoding="UTF-8"?>
<svg id="Layer_1" xmlns="http://www.w3.org/2000/svg" version="1.1" viewBox="0 0 20 20">
  <!-- Generator: Adobe Illustrator 29.1.0, SVG Export Plug-In . SVG Version: 2.1.0 Build 142)  -->
  <defs>
    <style>
      .st0 {
        fill: none;
      }
    </style>
  </defs>
  <path class="st0" d="M17.9,13.3c-.1-.2-.5-.6-1.4-.4-.5,0-1,.1-1.6.1-1.9,0-3.7-1-4.9-2.4-1.1-1.2-1.8-2.8-1.8-4.5,0-.9.2-1.9.6-2.7.4-.8.1-1.3,0-1.5-.2-.2-.6-.5-1.5,0C3.8,3.3,1.7,6.7,1.9,10.4c.2,3.4,2.7,6.4,5.9,7.5.8.3,1.6.4,2.4.5.1,0,.3,0,.4,0,2.8,0,5.4-1.3,7.1-3.6.6-.8.4-1.3.3-1.5Z"/>
</svg>