<svg width="25" height="24" viewBox="0 0 25 24" fill="none" xmlns="http://www.w3.org/2000/svg">
<path d="M12.5 2C6.98 2 2.5 6.48 2.5 12C2.5 17.52 6.98 22 12.5 22C18.02 22 22.5 17.52 22.5 12C22.5 6.48 18.02 2 12.5 2ZM16.03 13.03L13.03 16.03C12.88 16.18 12.69 16.25 12.5 16.25C12.31 16.25 12.12 16.18 11.97 16.03L8.97 13.03C8.68 12.74 8.68 12.26 8.97 11.97C9.26 11.68 9.74 11.68 10.03 11.97L11.75 13.69V8.5C11.75 8.09 12.09 7.75 12.5 7.75C12.91 7.75 13.25 8.09 13.25 8.5V13.69L14.97 11.97C15.26 11.68 15.74 11.68 16.03 11.97C16.32 12.26 16.32 12.74 16.03 13.03Z" fill="white"/>
</svg>
