<?xml version="1.0" encoding="UTF-8"?>
<svg id="Layer_1" data-name="Layer 1" xmlns="http://www.w3.org/2000/svg" viewBox="0 0 133.03 133.03">
  <path d="M66.51,0C29.78,0,0,29.78,0,66.51s29.78,66.51,66.51,66.51,66.51-29.78,66.51-66.51S103.25,0,66.51,0ZM106.39,84.96c0,12.95-10.53,23.48-23.48,23.48h-32.8c-12.95,0-23.48-10.53-23.48-23.48v-32.8c0-12.95,10.53-23.48,23.48-23.48h32.8c12.95,0,23.48,10.53,23.48,23.48v32.8Z" style="fill: #282828;"/>
  <g>
    <path d="M66.52,60.26c-4.68,0-8.49,3.81-8.49,8.5s3.81,8.49,8.49,8.49,8.5-3.81,8.5-8.49-3.81-8.5-8.5-8.5Z" style="fill: #282828;"/>
    <path d="M83.3,38.17h-33.57c-7.6,0-13.79,6.18-13.79,13.79v33.57c0,7.6,6.18,13.79,13.79,13.79h33.57c7.6,0,13.79-6.18,13.79-13.79v-33.57c0-7.6-6.18-13.79-13.79-13.79ZM66.52,86.81c-9.96,0-18.07-8.1-18.07-18.07s8.1-18.07,18.07-18.07,18.07,8.1,18.07,18.07-8.1,18.07-18.07,18.07ZM85.55,54.81c-2.86,0-5.19-2.33-5.19-5.19s2.33-5.19,5.19-5.19,5.19,2.33,5.19,5.19-2.33,5.19-5.19,5.19Z" style="fill: #282828;"/>
  </g>
</svg>