<?xml version="1.0" encoding="UTF-8"?>
<svg xmlns="http://www.w3.org/2000/svg" xmlns:xlink="http://www.w3.org/1999/xlink" version="1.1" viewBox="0 0 133 133">
  <!-- Generator: Adobe Illustrator 29.8.1, SVG Export Plug-In . SVG Version: 2.1.1 Build 2)  -->
  <defs>
    <style>
      .st0 {
        fill: #e21e63;
      }

      .st1 {
        fill: url(#linear-gradient2);
      }

      .st2 {
        fill: url(#linear-gradient1);
      }

      .st3 {
        fill: url(#linear-gradient3);
      }

      .st4 {
        fill: url(#linear-gradient5);
      }

      .st5 {
        fill: url(#linear-gradient4);
      }

      .st6 {
        fill: url(#linear-gradient);
      }

      .st7 {
        fill: #fff;
      }

      .st8 {
        fill: #0077b5;
        fill-rule: evenodd;
      }
    </style>
    <linearGradient id="linear-gradient" x1="292.7" y1="274.5" x2="278" y2="258.9" gradientUnits="userSpaceOnUse">
      <stop offset="0" stop-color="#9e32a4"/>
      <stop offset=".4" stop-color="#d53d7d"/>
      <stop offset=".7" stop-color="#d84e68"/>
      <stop offset="1" stop-color="#dfb38a"/>
    </linearGradient>
    <linearGradient id="linear-gradient1" x1="296.7" y1="270.7" x2="282" y2="255.1" xlink:href="#linear-gradient"/>
    <linearGradient id="linear-gradient2" x1="292.7" y1="274.5" x2="278" y2="258.9" xlink:href="#linear-gradient"/>
    <linearGradient id="linear-gradient3" x1="104.5" y1="109.1" x2="33.4" y2="33.9" xlink:href="#linear-gradient"/>
    <linearGradient id="linear-gradient4" x1="124.1" y1="90.6" x2="53" y2="15.3" xlink:href="#linear-gradient"/>
    <linearGradient id="linear-gradient5" x1="104.6" y1="109" x2="33.4" y2="33.8" xlink:href="#linear-gradient"/>
  </defs>
  <g id="Layer_2">
    <rect class="st7" x="124.1" y="191" width="602.1" height="247.8"/>
  </g>
  <g id="Layer_1">
    <g>
      <path class="st6" d="M284.8,269.9c2.1,0,3.7-1.7,3.7-3.7s-1.7-3.7-3.7-3.7-3.7,1.7-3.7,3.7,1.7,3.7,3.7,3.7ZM284.8,264.4c1,0,1.8.8,1.8,1.8s-.8,1.8-1.8,1.8-1.8-.8-1.8-1.8.8-1.8,1.8-1.8Z"/>
      <circle class="st2" cx="288.8" cy="262.2" r="1.1"/>
      <path class="st1" d="M281.4,274.4h6.8c2.7,0,4.9-2.2,4.9-4.9v-6.8c0-2.7-2.2-4.9-4.9-4.9h-6.8c-2.7,0-4.9,2.2-4.9,4.9v6.8c0,2.7,2.2,4.9,4.9,4.9ZM278.5,262.7c0-1.6,1.3-2.9,2.9-2.9h6.9c1.6,0,2.9,1.3,2.9,2.9v6.9c0,1.6-1.3,2.9-2.9,2.9h-6.9c-1.6,0-2.9-1.3-2.9-2.9v-6.9Z"/>
    </g>
    <path class="st8" d="M254.5,273.3c0,.6-.5,1.1-1.1,1.1h-1.5c-.6,0-1.1-.5-1.1-1.1v-8.9c0-.6.5-1.1,1.1-1.1h1.5c.6,0,1.1.5,1.1,1.1v8.9ZM252.7,261.7h0c-1.2,0-2-.8-2-1.9s.8-1.9,2.1-1.9h0c1.3,0,2,.8,2.1,1.9,0,1.1-.8,1.9-2.1,1.9h0ZM267.6,273.8c0,.3-.2.5-.5.5h-2.6c-.3,0-.5-.2-.5-.5v-5.4c0-1.5-.5-2.5-1.9-2.5s-1.6.7-1.9,1.4c0,.2-.1.6-.1.9v5.7c0,.3-.2.5-.5.5h-2.6c-.3,0-.5-.2-.5-.5,0-1.9,0-8.1,0-10,0-.3.2-.5.5-.5h2.6c.3,0,.5.2.5.5v1c.5-.8,1.4-1.8,3.3-1.8h0c2.4,0,4.3,1.6,4.3,5v5.8h0Z"/>
    <path class="st0" d="M318.1,262.8c-.8-1.9-2.3-3.5-4.3-4.3-3.3-1.3-6.7-.6-9.1,1.8-2.2,2.2-3,5.4-2,8.4.7,2.4,2.7,4.4,5.1,5.2.9.3,1.9.5,2.8.5,2.2,0,4.2-.8,5.8-2.4,2.4-2.4,3.1-5.9,1.8-9.2ZM310.5,259.5c1.5,0,2.9.5,4.1,1.4,0,0,0,.2,0,.3-.4.4-1.3,1.3-2.9,1.9,0,0-.2,0-.2,0-.8-1.4-1.6-2.6-2.1-3.3h0s0-.1,0-.1c.3,0,.7,0,1.1,0ZM307.4,260.3c0,0,.2,0,.2,0,.4.5,1.2,1.7,2,3.2,0,.1,0,.2-.1.3-2.2.5-4.2.7-5.2.7-.1,0-.2-.1-.2-.2.5-1.7,1.7-3.1,3.2-3.9ZM305.2,270.1c-.8-1.1-1.3-2.4-1.3-3.8,0,0,0-.2.2-.2,1,0,3.6-.1,6.4-.9,0,0,0,0,.1,0,0,.2.2.3.2.5,0,.1-.1.2-.1.2l-.5.2h0c-2.5,1-4.1,2.9-4.7,3.9,0,0-.2.1-.3,0ZM312.8,272.3c-.7.3-1.5.4-2.3.4-1.4,0-2.7-.4-3.8-1.2,0,0,0-.2,0-.2.4-.7,1.8-2.6,4.6-3.7,0,0,0,0,0,0,.1,0,.3,0,.3.2.7,1.9,1,3.4,1.2,4.4,0,0,0,.2-.1.2ZM312.5,265.5h0s0,0,0,0c0,0,0,0,0,0ZM314.7,271.2c-.1,0-.3,0-.3-.1-.2-.8-.5-2.2-1-3.8,0-.1,0-.2.1-.2,1.4-.1,2.7.1,3.3.3,0,0,.1.1.1.2-.3,1.4-1.1,2.7-2.2,3.7ZM316.9,265.8c-.6-.1-1.6-.2-2.7-.2s-.9,0-1.3,0c0,0-.2,0-.2-.1h0c0-.3-.2-.5-.3-.8,0,0,0,0,0,0,0,0,0,0,0,0,1.7-.7,2.7-1.7,3.3-2.2,0,0,.2,0,.3,0,.7.9,1.1,2,1.2,3.2,0,.1,0,.2-.2.2Z"/>
    <g>
      <path class="st3" d="M66.5,87c10,0,18.1-8.1,18.1-18.1s-8.1-18.1-18.1-18.1-18.1,8.1-18.1,18.1,8.1,18.1,18.1,18.1ZM66.5,60.5c4.7,0,8.5,3.8,8.5,8.5s-3.8,8.5-8.5,8.5-8.5-3.8-8.5-8.5,3.8-8.5,8.5-8.5Z"/>
      <circle class="st5" cx="85.5" cy="49.8" r="5.2"/>
      <path class="st4" d="M50.1,108.6h32.8c12.9,0,23.5-10.5,23.5-23.5v-32.8c0-13-10.5-23.5-23.5-23.5h-32.8c-12.9,0-23.5,10.5-23.5,23.5v32.8c0,13,10.5,23.5,23.5,23.5ZM35.9,52.2c0-7.6,6.2-13.8,13.8-13.8h33.6c7.6,0,13.8,6.2,13.8,13.8v33.6c0,7.6-6.2,13.8-13.8,13.8h-33.6c-7.6,0-13.8-6.2-13.8-13.8v-33.6Z"/>
    </g>
  </g>
</svg>