<?xml version="1.0" encoding="UTF-8"?>
<svg id="Layer_1" data-name="Layer 1" xmlns="http://www.w3.org/2000/svg" viewBox="0 0 133.03 133.03">
  <circle cx="66.51" cy="66.51" r="66.51" style="fill: #282828;"/>
  <path d="M82.92,28.67h-32.8c-12.95,0-23.48,10.53-23.48,23.48v32.8c0,12.95,10.53,23.48,23.48,23.48h32.8c12.95,0,23.48-10.53,23.48-23.48v-32.8c0-12.95-10.53-23.48-23.48-23.48ZM97.09,85.53c0,7.6-6.18,13.79-13.79,13.79h-33.57c-7.6,0-13.79-6.18-13.79-13.79v-33.57c0-7.6,6.18-13.79,13.79-13.79h33.57c7.6,0,13.79,6.18,13.79,13.79v33.57Z" style="fill: #5fc091;"/>
  <path d="M66.52,50.68c-9.96,0-18.07,8.1-18.07,18.07s8.1,18.07,18.07,18.07,18.07-8.1,18.07-18.07-8.1-18.07-18.07-18.07ZM75.01,68.75c0,4.68-3.81,8.49-8.5,8.49s-8.49-3.81-8.49-8.49,3.81-8.5,8.49-8.5,8.5,3.81,8.5,8.5Z" style="fill: #5fc091;"/>
  <path d="M85.55,44.43c-2.86,0-5.19,2.33-5.19,5.19s2.33,5.19,5.19,5.19,5.19-2.33,5.19-5.19-2.33-5.19-5.19-5.19Z" style="fill: #5fc091;"/>
</svg>