<?xml version="1.0" encoding="UTF-8"?>
<svg id="Layer_1" data-name="Layer 1" xmlns="http://www.w3.org/2000/svg" viewBox="0 0 137.57 137.57">
  <path d="M137.57,40.14C137.57,18.01,119.57,0,97.44,0h-57.3C18,0,0,18.01,0,40.14v57.3c0,22.13,18,40.14,40.14,40.14h57.3c22.13,0,40.14-18.01,40.14-40.14v-57.3ZM123.07,98.45c0,13.76-11.2,24.96-24.96,24.96h-58.64c-13.76,0-24.96-11.2-24.96-24.96v-58.64c0-13.76,11.19-24.96,24.96-24.96h58.64c13.76,0,24.96,11.19,24.96,24.96v58.64Z" style="fill: #333;"/>
  <path d="M68.79,38.44c-16.92,0-30.68,13.76-30.68,30.68s13.76,30.68,30.68,30.68,30.68-13.76,30.68-30.68-13.76-30.68-30.68-30.68ZM68.79,84.84c-8.66,0-15.7-7.04-15.7-15.7s7.04-15.71,15.7-15.71,15.71,7.05,15.71,15.71-7.05,15.7-15.71,15.7Z" style="fill: #333;"/>
  <path d="M102.03,27.52c-4.52,0-8.19,3.68-8.19,8.19s3.68,8.19,8.19,8.19,8.19-3.68,8.19-8.19-3.68-8.19-8.19-8.19Z" style="fill: #333;"/>
</svg>