<?xml version="1.0" encoding="UTF-8"?>
<svg id="Layer_1" data-name="Layer 1" xmlns="http://www.w3.org/2000/svg" viewBox="0 0 133.03 133.03">
  <circle cx="66.51" cy="66.51" r="66.51" style="fill: #282828;"/>
  <g>
    <path d="M36.71,26.19c-5.87,0-9.72,3.87-9.72,8.93s3.72,8.94,9.49,8.94h.11c5.99,0,9.72-3.97,9.72-8.94-.1-5.07-3.72-8.93-9.59-8.93h0Z" style="fill: #5fc091; fill-rule: evenodd;"/>
    <path d="M86.27,49.92c-9.1,0-13.18,4.99-15.47,8.53v.16h-.11s.09-.1.11-.16v-4.84c0-1.37-1.11-2.48-2.48-2.48h-12.16c-1.38,0-2.49,1.13-2.48,2.5.11,9.28,0,38.05-.04,46.71,0,1.37,1.1,2.49,2.48,2.49h12.2c1.37,0,2.48-1.11,2.48-2.48v-26.41c0-1.54.12-3.08.58-4.19,1.23-3.08,4.05-6.3,8.8-6.3,6.22,0,8.69,4.75,8.69,11.7v25.2c0,1.37,1.11,2.48,2.48,2.48h12.21c1.37,0,2.48-1.11,2.48-2.48v-27.17c0-15.9-8.47-23.27-19.76-23.27h0s0,.01,0,.01Z" style="fill: #5fc091; fill-rule: evenodd;"/>
    <rect x="28" y="51.12" width="17.18" height="51.72" rx="5.07" ry="5.07" style="fill: #5fc091;"/>
  </g>
</svg>