<?xml version="1.0" encoding="UTF-8"?>
<svg id="Layer_1" data-name="Layer 1" xmlns="http://www.w3.org/2000/svg" viewBox="0 0 138.22 134.03">
  <path d="M16.99,0C6.72,0,0,6.76,0,15.62s6.51,15.63,16.59,15.63h.19c10.48,0,16.99-6.95,16.99-15.63-.18-8.86-6.51-15.62-16.77-15.62h-.01Z" style="fill: #282828; fill-rule: evenodd;"/>
  <path d="M103.66,41.5c-15.91,0-23.04,8.73-27.06,14.91v.28h-.19c.06-.06.16-.18.19-.28v-8.47c0-2.39-1.94-4.33-4.33-4.33h-21.26c-2.41,0-4.36,1.97-4.33,4.38.2,16.22,0,66.54-.07,81.68-.01,2.4,1.93,4.35,4.33,4.35h21.33c2.39,0,4.33-1.94,4.33-4.33v-46.19c0-2.7.21-5.38,1.01-7.32,2.15-5.39,7.09-11.02,15.39-11.02,10.88,0,15.2,8.31,15.2,20.46v44.06c0,2.39,1.94,4.33,4.33,4.33h21.35c2.39,0,4.33-1.94,4.33-4.33v-47.51c0-27.81-14.81-40.69-34.56-40.69v.02Z" style="fill: #282828; fill-rule: evenodd;"/>
  <rect x="1.75" y="43.59" width="30.04" height="90.44" rx="5.07" ry="5.07" style="fill: #282828;"/>
</svg>