<?xml version="1.0" encoding="UTF-8"?>
<svg id="Layer_1" data-name="Layer 1" xmlns="http://www.w3.org/2000/svg" viewBox="0 0 133.03 133.03">
  <path d="M70.8,58.61v-.16c-.02.06-.07.13-.11.16h.11Z" style="fill: #282828; fill-rule: evenodd;"/>
  <path d="M66.51,0C29.78,0,0,29.78,0,66.51s29.78,66.51,66.51,66.51,66.51-29.78,66.51-66.51S103.25,0,66.51,0ZM45.18,97.76c0,2.8-2.27,5.07-5.07,5.07h-7.04c-2.8,0-5.07-2.27-5.07-5.07v-41.58c0-2.8,2.27-5.07,5.07-5.07h7.04c2.8,0,5.07,2.27,5.07,5.07v41.58ZM36.59,44.06h-.11c-5.76,0-9.49-3.87-9.49-8.94s3.84-8.93,9.72-8.93h0c5.87,0,9.49,3.87,9.59,8.93,0,4.96-3.72,8.94-9.72,8.94ZM106.03,100.35c0,1.37-1.11,2.48-2.48,2.48h-12.21c-1.37,0-2.48-1.11-2.48-2.48v-25.2c0-6.95-2.47-11.7-8.69-11.7-4.75,0-7.57,3.22-8.8,6.3-.46,1.11-.58,2.64-.58,4.19v26.41c0,1.37-1.11,2.48-2.48,2.48h-12.2c-1.37,0-2.48-1.12-2.48-2.49.04-8.66.15-37.43.04-46.71-.02-1.38,1.1-2.5,2.48-2.5h12.16c1.37,0,2.48,1.11,2.48,2.48v4.84c2.3-3.53,6.38-8.53,15.47-8.53h0s0-.01,0-.01c11.29,0,19.76,7.37,19.76,23.27v27.17Z" style="fill: #282828; fill-rule: evenodd;"/>
</svg>